<svg fill="none" height="157" viewBox="0 0 896 157" width="896" xmlns="http://www.w3.org/2000/svg" xmlns:xlink="http://www.w3.org/1999/xlink"><clipPath id="a"><path d="m0 0h896v157h-896z"/></clipPath><g clip-path="url(#a)"><path d="m70.114 132.052c0 12.076-9.7992 23.409-21.8827 23.409s-21.8827-11.333-21.8827-23.409" fill="#82d0c8"/><path d="m125.639 132.052c0 12.076-9.799 23.409-21.882 23.409-12.0837 0-21.8829-11.333-21.8829-23.409" fill="#82d0c8"/><path d="m48.2312 157c-12.915 0-23.4226-10.502-23.4226-23.409v-1.539h3.0799v1.539c0 11.209 9.1268 20.331 20.3427 20.331 11.216 0 20.3428-9.122 20.3428-20.331v-1.539h3.0799v1.539c0 12.907-10.5076 23.409-23.4227 23.409z" fill="#033a43"/><path d="m103.757 157c-12.9153 0-23.4229-10.502-23.4229-23.409v-1.539h3.0799v1.539c0 11.209 9.1268 20.331 20.343 20.331 11.216 0 20.343-9.122 20.343-20.331v-1.539h3.079v1.539c0 12.907-10.507 23.409-23.422 23.409z" fill="#033a43"/><path d="m814.937 132.052c0 12.076-9.799 23.409-21.883 23.409-12.083 0-21.882-11.333-21.882-23.409" fill="#82d0c8"/><path d="m870.462 132.052c0 12.076-9.799 23.409-21.882 23.409-12.084 0-21.883-11.333-21.883-23.409" fill="#82d0c8"/><path d="m793.054 157c-12.915 0-23.422-10.502-23.422-23.409v-1.539h3.079v1.539c0 11.209 9.127 20.331 20.343 20.331s20.343-9.122 20.343-20.331v-1.539h3.08v1.539c0 12.907-10.508 23.409-23.423 23.409z" fill="#033a43"/><path d="m848.58 157c-12.915 0-23.423-10.502-23.423-23.409v-1.539h3.08v1.539c0 11.209 9.127 20.331 20.343 20.331s20.343-9.122 20.343-20.331v-1.539h3.079v1.539c0 12.907-10.507 23.409-23.422 23.409z" fill="#033a43"/><path d="m443.809 132.052c0 12.076-9.799 23.409-21.883 23.409-12.083 0-21.883-11.333-21.883-23.409" fill="#82d0c8"/><path d="m499.334 132.052c0 12.076-9.799 23.409-21.882 23.409-12.084 0-21.883-11.333-21.883-23.409" fill="#82d0c8"/><path d="m419.652 1.53906h462.257c6.935 0 12.551 5.61759 12.551 12.54334v91.3026c0 4.956-4.019 8.968-8.973 8.968h-874.8613c-4.95867 0-8.97281-4.017-8.97281-8.968v-91.3026c0-6.92575 5.62082-12.54334 12.55061-12.54334h309.7865" fill="#fbf2db"/><path d="m885.487 115.897h-270.174c-.852 0-1.54-.688-1.54-1.539 0-.852.688-1.539 1.54-1.539h270.174c4.102 0 7.438-3.335 7.438-7.429v-91.3076c0-6.069-4.938-11.00427-11.01-11.00427h-37.883c-.852 0-1.54-.68745-1.54-1.53907 0-.851611.688-1.53906 1.54-1.53906h37.883c7.771 0 14.09 6.32043 14.09 14.0824v91.3026c0 5.797-4.717 10.507-10.518 10.507z" fill="#033a43"/><path d="m204.531 1.93945v129.09655h-89.995v-129.09655" fill="#fcd882"/><path d="m114.536 132.575c-.852 0-1.54-.688-1.54-1.539v-128.58385c0-.85161.688-1.539064 1.54-1.539064.853 0 1.54.687454 1.54 1.539064v128.58385c0 .851-.687 1.539-1.54 1.539z" fill="#033a43"/><path d="m204.531 132.575c-.852 0-1.54-.687-1.54-1.539v-41.6727c0-.8516.688-1.5391 1.54-1.5391s1.54.6875 1.54 1.5391v41.6727c0 .852-.688 1.539-1.54 1.539z" fill="#033a43"/><path d="m204.531 42.2315c-.852 0-1.54-.6874-1.54-1.539v-37.72765c0-.85162.688-1.53907 1.54-1.53907s1.54.68745 1.54 1.53907v37.72765c0 .8516-.688 1.539-1.54 1.539z" fill="#033a43"/><path d="m543.32 1.93945v129.09655h-89.994v-129.09655" fill="#fcd882"/><path d="m453.326 132.575c-.852 0-1.54-.688-1.54-1.539v-128.07115c0-.85162.688-1.53907 1.54-1.53907s1.54.68745 1.54 1.53907v128.07115c0 .851-.688 1.539-1.54 1.539z" fill="#033a43"/><path d="m543.32 132.575c-.852 0-1.54-.688-1.54-1.539v-106.5243c0-.8516.688-1.539 1.54-1.539s1.54.6874 1.54 1.539v106.5243c0 .851-.688 1.539-1.54 1.539z" fill="#033a43"/><path d="m784.579 1.93945v129.09655h-89.994v-129.09655" fill="#fcd882"/><path d="m694.585 61.3522c-.852 0-1.54-.6875-1.54-1.5391v-55.82189c0-.85161.688-1.53906 1.54-1.53906s1.54.68745 1.54 1.53906v55.82189c0 .8516-.688 1.5391-1.54 1.5391z" fill="#033a43"/><path d="m694.585 132.575c-.852 0-1.54-.688-1.54-1.539v-32.9823c0-.8516.688-1.5391 1.54-1.5391s1.54.6875 1.54 1.5391v32.9823c0 .851-.688 1.539-1.54 1.539z" fill="#033a43"/><path d="m784.579 132.575h-89.994c-.852 0-1.54-.688-1.54-1.539 0-.852.688-1.539 1.54-1.539h88.454v-125.50579c0-.85161.688-1.53906 1.54-1.53906.853 0 1.54.68745 1.54 1.53906v127.04479c0 .851-.687 1.539-1.54 1.539z" fill="#033a43"/><path d="m40.2594 51.1435c-1.3602-4.5761-4.0603-7.6748-8.598-9.496-5.5387-2.2214-11.2827-2.9807-17.1345-3.15-9.00875-.2565-3.1877-.0564-12.18105.3386.01026 5.8587.02053 11.7226.02566 17.5813l14.46019-6.5462c1.2781-.59 2.7821-.0154 3.3622 1.2621.58 1.2774.0102 2.7805-1.2679 3.3602-6.5243 2.955-11.9757 5.4278-16.57502 7.5158-.0308 3.7194-.09753 9.9013-.17453 17.2016 14.80405-.6053 13.69535-1.1799 26.16895-1.4723 1.853-.0411 3.701-.1488 5.477-.6978 3.814-1.1902 6.3857-3.5962 7.13-7.644 1.1242-6.1306 1.0985-12.2048-.693-18.2482z" fill="#81a046"/><path d="m2.17648 80.7448c-.40039 0-.78538-.1539-1.07283-.4361-.302862-.2924-.472256-.6977-.467123-1.1235.076997-7.3003.143729-13.4771.174528-17.2016.005133-.6003.359325-1.1389.903435-1.3903 4.59419-2.088 10.05071-4.5608 16.57501-7.5158.503-.2257.7289-.8208.4979-1.3236-.1129-.2462-.3131-.4361-.5646-.5284-.2259-.0821-.4672-.0821-.693 0-.0205.0103-.0462.0205-.0667.0308l-14.46018 6.5513c-.47739.2154-1.03177.1744-1.46809-.1078-.44145-.2821-.703243-.7695-.708376-1.2928 0-5.0019-.010266-10.0039-.020532-15.0059v-2.5753c-.005134-.826.641648-1.5032 1.468088-1.5391 3.57268-.159 4.77898-.2822 5.49762-.3591 1.2063-.1283 1.30896-.1385 6.79117.0205 7.0171.2052 12.6276 1.2364 17.6633 3.2577 4.8765 1.9597 7.9872 5.3867 9.5015 10.4862 1.7555 5.8997 1.9916 12.1021.734 18.9612-.8162 4.4223-3.5676 7.3927-8.1874 8.8343-2.0327.631-4.1117.7285-5.898.7695-6.4627.1539-9.2705.3848-12.5301.6515-3.044.2514-6.49858.5336-13.60802.8209-.02054 0-.04107 0-.0616 0zm1.70934-17.7455c-.0308 3.4681-.08213 8.6034-.14886 14.6006 5.96988-.2616 9.09084-.5181 11.86274-.7438 3.3058-.2719 6.1547-.5028 12.7097-.6618 1.5811-.0359 3.4033-.118 5.0562-.6311 3.4854-1.0876 5.4771-3.2012 6.0726-6.4538 1.1703-6.3717.9547-12.1073-.6571-17.5299-1.2473-4.1965-3.6907-6.895-7.6946-8.5059-4.6917-1.8828-9.9686-2.8473-16.6058-3.0371-5.27691-.1488-5.36418-.1385-6.38054-.0359-.64165.0667-1.65288.1744-4.2092.3027v1.103c.01026 4.2067.0154 8.4135.02053 12.6203l12.18611-5.5201c.0308-.0154.0616-.0308.0924-.0462.9907-.4514 2.0995-.4925 3.1159-.1077 1.0215.3847 1.8376 1.144 2.2894 2.1393.9291 2.0469.0154 4.4684-2.0328 5.397-6.1033 2.7652-11.27242 5.1097-15.67668 7.1053z" fill="#033a43"/><path d="m607.711 82.0471c-.175 3.7092-.934 4.6634-4.635 4.9456-5.365.4001-10.749.631-16.124.631-8.049 0-6.719-6.7411-4.578-45.7615.231-4.2376.934-5.161 5.22-5.4278 5.513-.3386 11.052-.3694 16.58-.3181 3.552.0308 4.03.7234 4.322 4.4736.719 9.1369-.333 31.7252-.785 41.4572z" fill="#f3b12e"/><path d="m581.414 60.2593c-.031 0-.057 0-.088 0-.847-.0462-1.498-.7746-1.452-1.6211.097-1.7597.205-3.6168.318-5.5868.195-3.4219.411-7.1669.636-11.2711.278-5.0943 1.715-6.5718 6.663-6.8796 5.914-.3643 11.755-.3643 16.693-.3181 4.569.0359 5.503 1.575 5.847 5.8895.169 2.1341.252 5.1353.252 8.9163 0 .8516-.688 1.5391-1.54 1.5391s-1.54-.6926-1.54-1.5391c0-3.704-.077-6.6231-.242-8.6752-.16-2.0213-1.095-3.0405-2.802-3.0576-4.882-.0462-10.657-.0411-16.473.3129-3.403.2104-3.583.3951-3.778 3.9759-.225 4.1093-.441 7.8595-.636 11.2814-.113 1.9649-.221 3.8271-.318 5.5817-.047.8208-.724 1.4518-1.535 1.4518z" fill="#033a43"/><path d="m230.972 70.8582c-.108-8.7778 1.099-17.4837 1.16-26.2462.057-7.9826 3.968-5.674 22.396-6.1973 5.18-.1487 4.661 4.135 3.229 43.6684-.128 3.4629.01 6.9156-3.911 7.1413-25.949 1.4724-22.602 3.4373-22.869-18.361z" fill="#f3b12e"/><path d="m314.263 64.1381c-.262 6.7565-.483 13.513-.806 20.2644-.174 3.704-1.078 4.6326-4.666 4.8839-4.599.3181-9.209.5746-13.813.7593-6.052.236-7.977-1.5596-8.29-7.6902-.375-7.2951 1.026-30.9352 1.457-38.2303.231-3.8528 1.145-5.2277 4.779-5.4227 6.14-.3283 12.299-.2308 18.449-.1898 2.561.0154 2.721 2.0983 2.854 3.9605.642 8.747.118 13.4515.118 21.6598h-.082z" fill="#f3b12e"/><path d="m313.457 85.9418s-.051 0-.077 0c-.852-.0411-1.504-.7593-1.463-1.6109.226-4.7608.406-9.614.58-14.303.072-1.9803.149-3.9606.226-5.9408 0-.1539.031-.3027.082-.4412.005-2.4728.057-4.6172.108-6.695.108-4.5761.205-8.5315-.221-14.3646-.174-2.4214-.441-2.5292-1.329-2.5343l-2.362-.0154c-5.256-.041-10.687-.0821-15.994.2052-2.511.1334-3.116.5182-3.322 3.9759-.051.8465-.79 1.4981-1.627 1.4468-.847-.0513-1.499-.7798-1.447-1.6263.323-5.4586 2.623-6.6744 6.231-6.8694 5.4-.2924 10.883-.2514 16.18-.2103l2.356.0154c3.989.0256 4.256 3.6476 4.379 5.3867.436 5.9767.339 10.1937.231 14.6622-.052 2.1957-.108 4.4632-.108 7.1104 0 .195-.036.3797-.103.549-.072 1.8212-.138 3.6373-.205 5.4585-.175 4.6993-.354 9.5576-.58 14.3338-.041.826-.719 1.4673-1.535 1.4673z" fill="#033a43"/><path d="m339.98 71.2489c-.108-8.7727 1.109-17.4735 1.176-26.2359.051-7.3414 2.335-5.6484 22.416-6.1358 5.154-.1282 4.646 3.4167 3.183 44.6278-.185 5.2482-.847 6.0023-6.258 6.3614-4.599.3078-9.214.4925-13.818.5438-8.547.0873-6.54-5.7304-6.704-19.1613z" fill="#f3b12e"/><path d="m423.286 64.1685c-.256 6.7514-.498 13.5027-.785 20.2541-.18 4.217-.883 5.0738-5.185 5.3919-5.056.3693-10.132.5745-15.199.5951-4.07.0102-5.749-1.6571-6.242-5.8126-.467-3.9195-.359-6.6231 1.335-40.4928.287-5.7766 1.242-4.8993 22.73-5.1507 2.72-.0308 3.182 1.8725 3.326 4.0272.534 8.2135.221 14.3441-.093 21.1827h.124-.011z" fill="#f3b12e"/><path d="m634.28 71.2489c-.108-8.7727 1.109-17.4735 1.176-26.2359.051-7.3414 2.335-5.6484 22.416-6.1358 5.154-.1282 4.646 3.4167 3.183 44.6278-.185 5.2482-.847 6.0023-6.258 6.3614-4.599.3078-9.214.4925-13.818.5438-8.547.0873-6.54-5.7304-6.704-19.1613z" fill="#f3b12e"/><path d="m495.407 116.82c0 4.423.031 4.448-4.122 4.346-3.839-.093-7.689-.17-11.524-.421-6.626-.431-11.539-2.098-12.299-8.444-1.057-8.86-1.293-17.7664-1.899-26.6519-1.222-17.8378-.164-35.6294 1.016-53.4107.986-14.8366 10.811-12.8256 27.052-14.7237 2.084-.2463 2.649.4617 2.603 2.4933-.19 7.526-.842 78.3794-.827 96.812z" fill="#da6a9e"/><path d="m501.403 120.796c0-15.401-.231-80.7906-.282-98.5976-.016-5.3252-1.053-5.2226 5.205-4.9609 8.972.3745 18.104-.8517 20.876 8.8444 1.458 5.0944 1.627 10.3066 2.095 15.4728 1.078 12.0919 1.421 24.2095.667 36.3578-1.874 30.0885.477 34.8135-4.605 39.0665-1.627 1.36-3.439 2.139-5.364 2.442-6.041.959-12.135 1.544-18.587 1.37z" fill="#da6a9e"/><path d="m479.767 122.289c-.036 0-.067 0-.103 0-11.216-.729-13.228-5.618-13.726-9.799-.734-6.131-1.078-12.359-1.412-18.3866-.149-2.7344-.308-5.5663-.498-8.3418-1.196-17.4684-.246-34.6187 1.017-53.621.913-13.7643 9.614-14.4928 20.63-15.4163.847-.0718 1.591.5592 1.663 1.4057s-.559 1.5904-1.406 1.6622c-12.145 1.0158-17.104 1.8571-17.818 12.5536-1.252 18.8895-2.197 35.9321-1.016 53.2055.19 2.796.349 5.633.503 8.3828.329 5.9767.672 12.1589 1.391 18.1919.555 4.627 3.598 6.618 10.872 7.09.847.056 1.494.79 1.437 1.636-.051.816-.728 1.442-1.534 1.442z" fill="#033a43"/><path d="m525.359 118.513c-.441 0-.877-.19-1.18-.549-.544-.652-.462-1.621.195-2.17 2.772-2.319 2.921-4.694 3.162-15.534.118-5.2743.277-12.4925.893-22.4452.708-11.3839.488-23.2039-.667-36.1269-.087-.9748-.164-1.9546-.241-2.9294-.324-4.0631-.657-8.2648-1.797-12.2561-1.314-4.6018-4.194-6.7308-9.943-7.3516-.847-.0923-1.458-.8516-1.365-1.6929.092-.8465.852-1.457 1.693-1.3647 4.728.5079 10.431 2.0572 12.577 9.5627 1.227 4.2889 1.571 8.6445 1.904 12.8615.077.9696.154 1.9341.241 2.8986 1.171 13.082 1.386 25.0508.673 36.5938-.616 9.8911-.775 17.0785-.888 22.3262-.241 10.866-.318 14.529-4.261 17.823-.287.241-.636.359-.985.359z" fill="#033a43"/><path d="m156.023 69.4323v48.3937c0 3.211-.088 3.37-3.357 3.324-14.245-.205-14.989-.564-17.884-1.272-3.994-.975-6.442-3.376-6.843-7.608-3.182-33.4597-2.839-54.5962-.595-82.3301 1.037-12.8256 15.317-10.9685 27.729-12.41 1.94-.2258 1.545 1.4108 1.535 2.5907-.565 49.3117.133 49.3117-.58 49.3117z" fill="#da6a9e"/><path d="m152.666 122.689s-.016 0-.021 0c-13.705-.195-15.076-.533-17.812-1.21l-.416-.103c-4.794-1.17-7.566-4.268-8.013-8.957-3.305-34.773-2.761-55.8581-.595-82.602.944-11.6866 12.248-12.5228 19.727-13.0769.841-.0667 1.586.5746 1.647 1.4211.062.8465-.575 1.5852-1.421 1.6468-10.713.79-16.268 2.5959-16.883 10.2553-2.151 26.5694-2.695 47.516.59 82.0627.323 3.402 2.125 5.392 5.677 6.259l.426.103c2.428.6 3.763.928 17.114 1.123.852.01 1.53.713 1.52 1.56-.011.841-.699 1.518-1.54 1.518z" fill="#033a43"/><path d="m161.695 69.0218v-47.9829c0-4.2478-.303-4.0067 4.035-3.8426 9.747.3745 19.896-1.0568 22.149 9.65 3.937 18.715 2.911 47.7161 1.946 66.6774-.688 13.5643 1.401 22.9683-8.044 25.4923-5.99 1.6-12.176 1.544-18.31 1.872-1.514.082-1.715-.815-1.709-2.042.036-4.463.036-37.681.036-49.8293h-.113z" fill="#da6a9e"/><path d="m181.781 120.555c-.683 0-1.304-.457-1.489-1.144-.22-.821.267-1.662 1.089-1.883 6.241-1.667 6.58-6.613 6.709-16.75.03-2.319.061-4.72.195-7.3313 1.006-19.7667 1.904-48.147-1.915-66.2823-1.627-7.7364-7.484-8.2084-16.904-8.3469-1.242-.0154-2.53-.0359-3.798-.0872-.852-.0308-1.514-.749-1.478-1.5955.03-.8465.734-1.5083 1.596-1.4775 1.237.0462 2.5.0667 3.727.0821 8.68.1231 17.653.2513 19.87 10.7888 3.891 18.4842 2.993 47.1313 1.976 67.0724-.128 2.5498-.159 4.9199-.189 7.2134-.124 9.691-.221 17.34-8.994 19.684-.133.036-.267.052-.4.052z" fill="#033a43"/><path d="m89.6611 58.5611c-.2567 6.7513-.498 13.5027-.7854 20.2541-.1797 4.217-.8829 5.0738-5.1845 5.3918-5.0562.3694-10.1329.5746-15.1993.5951-4.0706.0103-5.7492-1.657-6.242-5.8125-.4671-3.9195-.3593-6.6231 1.3347-40.4928.2874-5.7766 1.2422-4.8993 22.7296-5.1507 2.7206-.0308 3.1826 1.8725 3.3263 4.0272.5339 8.2135.2207 14.3441-.0924 21.1827h.1232-.0102z" fill="#f3b12e"/><path d="m855.992 51.1435c1.36-4.5761 4.06-7.6748 8.598-9.496 5.539-2.2214 11.283-2.9807 17.135-3.15 9.008-.2565 3.187-.0564 12.181.3386-.011 5.8587-.021 11.7226-.026 17.5813l-14.46-6.5462c-1.278-.59-2.782-.0154-3.362 1.2621-.58 1.2774-.011 2.7805 1.267 3.3602 6.525 2.955 11.976 5.4278 16.576 7.5158.03 3.7194.097 9.9013.174 17.2016-14.804-.6053-13.695-1.1799-26.169-1.4723-1.853-.0411-3.701-.1488-5.477-.6978-3.814-1.1902-6.386-3.5962-7.13-7.644-1.124-6.1306-1.098-12.2048.693-18.2482z" fill="#81a046"/><path d="m894.075 80.7443s-.041 0-.062 0c-7.114-.2873-10.564-.5746-13.613-.8208-3.254-.2668-6.067-.4976-12.53-.6515-1.786-.0411-3.865-.1386-5.898-.7696-4.62-1.4416-7.376-4.412-8.192-8.8342-1.263-6.8591-1.022-13.0667.734-18.9664 1.514-5.0995 4.62-8.5264 9.501-10.4862 5.036-2.0213 10.652-3.0576 17.663-3.2577 5.483-.1539 5.585-.1436 6.792-.0205.718.077 1.925.2001 5.497.3591.827.0359 1.474.7131 1.474 1.5391v2.5138c-.016 5.0225-.021 10.045-.026 15.0674 0 .5233-.267 1.0107-.709 1.2929-.441.2821-.99.3232-1.468.1077l-14.46-6.5513s-.046-.0205-.067-.0308c-.225-.0821-.467-.0872-.692 0-.252.0924-.452.2822-.565.5284-.226.5028 0 1.0928.498 1.3236 6.524 2.955 11.975 5.4278 16.575 7.5158.544.2462.898.79.903 1.3903.031 3.7194.098 9.9013.175 17.2016 0 .4207-.165.826-.467 1.1235-.288.277-.673.4361-1.073.4361zm-7.397-40.8211c-.795 0-2.135.0359-4.907.1129-6.637.1898-11.914 1.1594-16.606 3.037-4.004 1.6058-6.447 4.3094-7.695 8.5059-1.611 5.4227-1.827 11.1583-.657 17.53.601 3.2526 2.588 5.3662 6.078 6.4538 1.648.513 3.47.5951 5.051.631 6.555.1539 9.404.3899 12.71.6618 2.777.2258 5.893.4823 11.863.7439-.062-5.9972-.118-11.1326-.149-14.6006-4.405-2.0008-9.574-4.3402-15.677-7.1053-2.048-.9286-2.962-3.3501-2.033-5.397.452-.9953 1.268-1.7546 2.29-2.1393 1.021-.3797 2.125-.3438 3.116.1077.03.0154.061.0308.092.0462l12.186 5.5201c0-4.2273.01-8.4546.021-12.6819v-1.0414c-2.552-.1283-3.563-.236-4.21-.3027-.482-.0513-.754-.077-1.473-.077z" fill="#033a43"/><path d="m807.622 58.5618h-.01.123c-.313-6.8334-.626-12.9692-.092-21.1826.138-2.1599.605-4.058 3.326-4.0273 21.487.2514 22.442-.6259 22.73 5.1508 1.694 33.8645 1.801 36.5733 1.334 40.4928-.492 4.1503-2.171 5.8228-6.242 5.8125-5.071-.0154-10.143-.2257-15.199-.5951-4.302-.3181-5-1.1748-5.184-5.3919-.288-6.7513-.524-13.5027-.786-20.2541z" fill="#f3b12e"/><path d="m892.971 132.637h-891.43105c-.852105 0-1.53995-.688-1.53995-1.539 0-.852.687845-1.539 1.53995-1.539h891.43105c.852 0 1.54.687 1.54 1.539 0 .851-.688 1.539-1.54 1.539z" fill="#033a43"/><path d="m421.926 157c-12.915 0-23.423-10.502-23.423-23.409v-1.539h3.08v1.539c0 11.209 9.127 20.331 20.343 20.331s20.343-9.122 20.343-20.331v-1.539h3.08v1.539c0 12.907-10.508 23.409-23.423 23.409z" fill="#033a43"/><path d="m477.452 157c-12.915 0-23.423-10.502-23.423-23.409v-1.539h3.08v1.539c0 11.209 9.127 20.331 20.343 20.331s20.342-9.122 20.342-20.331v-1.539h3.08v1.539c0 12.907-10.507 23.409-23.422 23.409z" fill="#033a43"/><path d="m737.714 116.82c0 4.423.03 4.448-4.122 4.346-3.84-.093-7.69-.17-11.524-.421-6.627-.431-11.54-2.098-12.299-8.444-1.058-8.86-1.294-17.7664-1.9-26.6519-1.221-17.8378-.164-35.6294 1.017-53.4107.985-14.8366 10.81-12.8256 27.051-14.7237 2.085-.2463 2.649.4617 2.603 2.4933-.19 7.526-.842 78.3794-.826 96.812z" fill="#da6a9e"/><path d="m743.704 120.796c0-15.401-.231-80.7906-.282-98.5976-.016-5.3252-1.053-5.2226 5.205-4.9609 8.972.3745 18.104-.8517 20.876 8.8444 1.458 5.0944 1.627 10.3066 2.095 15.4728 1.078 12.0919 1.421 24.2095.667 36.3578-1.874 30.0885.477 34.8135-4.605 39.0665-1.627 1.36-3.439 2.139-5.364 2.442-6.041.959-12.135 1.544-18.587 1.37z" fill="#da6a9e"/><g fill="#033a43"><path d="m722.068 122.289c-.036 0-.067 0-.103 0-11.216-.729-13.228-5.618-13.726-9.799-.734-6.13-1.078-12.358-1.412-18.3814-.149-2.7344-.308-5.5663-.498-8.3417-1.196-17.4633-.246-34.6136 1.017-53.621.913-13.7695 9.393-14.4775 21.123-15.4574l1.262-.1077c.858-.0718 1.592.5541 1.664 1.4057.071.8465-.555 1.5904-1.407 1.6622l-1.268.1077c-11.698.9799-17.571 1.4673-18.31 12.5947-1.252 18.8894-2.197 35.9372-1.016 53.2055.19 2.7959.349 5.6381.503 8.3827.328 5.9767.672 12.1587 1.391 18.1867.554 4.627 3.603 6.618 10.872 7.09.847.056 1.494.79 1.437 1.636-.051.816-.729 1.442-1.534 1.442z"/><path d="m767.661 118.513c-.442 0-.878-.189-1.181-.554-.544-.651-.457-1.621.195-2.17 2.772-2.319 2.921-4.694 3.162-15.534.118-5.2739.277-12.4921.893-22.4448.709-11.3839.488-23.1988-.667-36.1269-.087-.9748-.164-1.9495-.241-2.9294-.324-4.0631-.658-8.2699-1.797-12.2612-1.725-6.0383-6.016-7.3157-13.326-7.5722-.852-.0308-1.514-.7439-1.483-1.5904.031-.8516.759-1.5237 1.591-1.4826 6.54.2257 13.721 1.1851 16.18 9.7987 1.227 4.2889 1.571 8.6444 1.904 12.8615.077.9644.154 1.934.241 2.8985 1.171 13.0872 1.386 25.056.673 36.5939-.616 9.891-.775 17.0784-.888 22.3219-.241 10.865-.318 14.528-4.261 17.827-.287.241-.636.359-.985.359z"/><path d="m433.034 115.896h-215.131c-.852 0-1.54-.687-1.54-1.539 0-.851.688-1.539 1.54-1.539h215.131c.852 0 1.54.688 1.54 1.539 0 .852-.688 1.539-1.54 1.539z"/><path d="m564.007 115.896h-20.358c-.852 0-1.54-.687-1.54-1.539 0-.851.688-1.539 1.54-1.539h20.358c.852 0 1.54.688 1.54 1.539 0 .852-.688 1.539-1.54 1.539z"/><path d="m799.671 3.07813h-380.024c-.852 0-1.54-.68745-1.54-1.53907 0-.851611.688-1.53906 1.54-1.53906h380.024c.852 0 1.54.687449 1.54 1.53906 0 .85162-.688 1.53907-1.54 1.53907z"/><path d="m70.0626 115.897h-59.437c-5.7953 0-10.512685-4.715-10.512685-10.507v-91.3076c0-7.76197 6.318935-14.0824 14.090585-14.0824h309.7865c.852 0 1.54.687449 1.54 1.53906 0 .85162-.688 1.53907-1.54 1.53907h-309.7865c-6.07257 0-11.01068 4.93527-11.01068 11.00427v91.3026c0 4.099 3.33656 7.428 7.43278 7.428h59.437c.8521 0 1.54.688 1.54 1.54 0 .851-.6879 1.539-1.54 1.539z"/><path d="m396.024 83.8943c-.816 0-1.494-.6361-1.535-1.4621-.38-7.3977 1.006-30.73 1.458-38.3996.051-.8465.78-1.4981 1.627-1.4468s1.499.7798 1.448 1.6263c-1.212 20.4593-1.699 33.2643-1.458 38.0611.041.8465-.611 1.5698-1.458 1.616-.025 0-.051 0-.082 0z"/><path d="m660.834 83.8947c-.031 0-.062 0-.092 0-.847-.0513-1.499-.7798-1.448-1.6263.313-5.2944 1.145-19.3563 1.427-29.4115.021-.8516.734-1.5186 1.581-1.498.852.0256 1.52.7336 1.499 1.5801-.282 10.1014-1.114 24.1992-1.432 29.5038-.046.8157-.729 1.4468-1.535 1.4468z"/><path d="m82.4849 86.4034s-.0308 0-.041 0c-4.5532-.1282-10.4922-.3796-17.6428-.7592-.8469-.0462-1.4988-.7696-1.4578-1.616.0462-.8465.7751-1.4981 1.617-1.457 7.1248.3745 13.0331.631 17.5657.7541.8521.0257 1.5194.7336 1.4989 1.5801-.0257.8362-.7084 1.498-1.54 1.498z"/><path d="m831.168 35.4552s-.031 0-.041 0c-4.543-.1283-10.477-.3796-17.643-.7593-.847-.0461-1.499-.7695-1.458-1.616.047-.8516.77-1.5083 1.617-1.457 7.141.3745 13.049.631 17.566.7542.852.0256 1.52.7336 1.499 1.5801-.021.8362-.708 1.498-1.54 1.498z"/></g></g></svg>