<svg width="248" height="283" viewBox="0 0 248 283" fill="none" xmlns="http://www.w3.org/2000/svg">
<g clip-path="url(#clip0_180_286)">
<path d="M13.8379 112.151C17.7811 112.493 143.671 132.138 154.517 134.345C162.574 135.974 161.363 162.208 167.924 187.35C171.835 202.336 178.494 212.802 186.835 226.077C190.006 231.119 193.128 236.177 196.307 241.21C198.982 245.445 208.974 253.533 202.568 256.831C195.372 260.537 181.234 256.994 173.339 257.076C160.501 257.214 147.403 256.905 134.63 258.436C116.158 260.651 62.6931 262.191 57.3108 260.13C53.9936 258.868 6.44737 152.947 7.78887 111.288C9.76455 111.825 11.8053 112.11 13.8541 112.143L13.8379 112.151Z" fill="#DA6A9E"/>
<path d="M238.187 169.114C225.837 155.953 193.998 121.224 185.136 117.665C184.429 117.526 183.998 118.65 183.583 120.068C183.356 120.817 182.323 130.957 173.144 132.936C172.225 133.188 171.258 133.229 170.323 133.074C171.9 134.687 186.445 144.729 186.551 150.463C186.591 151.489 186.835 152.499 187.258 153.436L190.226 153.297C193.933 145.609 208.08 165.164 229.455 181.005C231.853 182.846 234.39 184.393 236.65 186.381C239.902 189.093 239.471 189.696 240.179 192.88C242.748 192.139 244.992 190.543 246.528 188.36C251.594 181.307 242.439 173.651 238.203 169.131L238.187 169.114Z" fill="#DA6A9E"/>
<path d="M183.583 120.068C182.339 127.601 177.664 131.942 172.998 133.074C172.998 133.074 106.207 73.847 102.451 69.8887C101.898 69.3023 105.06 68.6507 108.516 67.0625C115.727 63.7477 114.183 61.4346 116.134 56.7433C116.695 55.6112 117.118 54.9027 117.687 55.8963C119.378 57.5904 121.199 59.317 123.053 60.8401C127.378 64.4237 177.794 112.289 183.583 120.068Z" fill="#82D0C8"/>
<path d="M227.04 30.8761C237.536 26.0545 239.325 31.1693 235.65 33.8408C230.577 37.5303 220.007 40.503 216.04 45.7156C213.235 49.3969 218.446 54.7642 217.17 58.9994C215.21 65.5069 202.519 68.3901 197.413 70.7276C194.884 71.8841 191.624 73.5619 189.657 71.2896C187.819 69.172 190.104 66.8101 192.055 65.7757C197.193 63.0635 204.307 62.5016 208.56 58.0058C211.926 54.4547 207.722 50.3743 207.43 46.8395C207.153 43.4432 210.373 40.8695 212.649 39.2081C215.942 36.7973 219.438 34.6715 223.089 32.8471C224.495 32.1467 225.78 31.4544 227.04 30.8761Z" fill="#81A046"/>
<path d="M186.258 6.14102C192.714 -3.49403 196.99 0.0651582 195.145 4.30034C192.616 10.0993 185.177 18.0158 184.421 24.5152C183.892 29.0436 191.153 31.1693 192.177 35.3964C193.803 42.0587 184.372 50.9118 181.169 55.4646C179.591 57.7126 177.632 60.8564 174.819 59.9849C172.136 59.1541 172.998 55.8882 174.111 54.0475C177.103 49.12 182.99 44.9989 184.413 38.923C185.535 34.1177 179.746 32.8553 177.64 29.8743C175.648 27.0563 177.046 23.2202 178.201 20.5488C179.803 16.8023 181.738 13.2024 183.99 9.80609C184.689 8.52738 185.396 7.39529 186.242 6.12473L186.258 6.14102Z" fill="#81A046"/>
<path d="M86.076 31.8616C85.515 34.9729 82.5474 37.799 80.0108 39.3547C79.0107 39.8189 77.97 40.1935 76.905 40.4868V39.7782C72.2625 35.1276 73.9455 36.6832 70.8397 33.2788C67.6608 29.9069 64.7826 26.2663 62.2297 22.3976C61.7906 21.6972 59.9694 19.2864 60.6768 18.4394C61.0996 18.0158 62.0833 18.3009 62.5142 18.4394C64.2623 19.0013 65.9615 19.7099 67.5957 20.5569C73.9455 24.0103 80.1165 27.7812 86.076 31.8698V31.8616Z" fill="#81A046"/>
<path d="M240.162 193.141C230.853 195.405 219.609 182.911 212.926 177.308C210.543 175.312 199.828 165.832 196.982 163.169C193.624 160.033 188.941 157.516 187.242 153.558L190.209 153.42C193.99 145.593 209.194 166.467 229.438 181.127C240.39 189.052 239.179 188.384 240.162 193.141Z" fill="white"/>
<path d="M86.076 30.0291C86.076 39.7456 74.7667 40.4705 74.9293 40.6334C76.1976 42.7509 104.556 68.6263 104.556 68.6263C115.776 64.8798 114.126 61.7441 116.061 56.9225C93.5315 36.7647 86.076 29.8662 86.076 30.0372V30.0291Z" fill="white"/>
<path d="M77.6123 248.41C78.0432 249.395 64.3517 249.827 63.9208 249.68C62.6037 249.42 59.1239 235.004 59.1239 234.841C62.5142 234.703 73.0918 232.862 73.7992 233.571C75.0675 234.988 77.0513 247.139 77.6123 248.41Z" fill="white"/>
<path d="M68.0185 218.023C68.1567 218.308 68.864 219.293 68.7258 219.578C68.7258 219.635 53.766 221.468 53.205 220.71C51.2293 218.593 47.9853 209.682 47.5625 208.697C47.1398 207.451 46.5706 206.27 45.8714 205.162C50.3838 204.739 62.2378 203.745 62.9452 204.315C63.3679 204.6 63.7826 206.156 63.9289 206.579C67.1404 215.661 67.0347 215.954 68.0185 218.031V218.023Z" fill="white"/>
<path d="M56.3108 187.203C54.4733 187.765 40.79 188.335 40.3672 187.912C39.3671 187.081 37.3671 180.403 37.2614 179.995C36.5215 177.927 35.6841 175.361 35.0011 172.649C39.2289 172.225 51.5058 171.378 52.0749 171.802C53.1481 174.604 54.0018 177.487 54.6115 180.427C54.8798 182.056 56.5872 186.926 56.3027 187.212L56.3108 187.203Z" fill="white"/>
<path d="M43.3266 138.727C45.156 140.291 48.1235 153.428 47.4162 154.413C46.7089 155.26 43.6112 154.886 40.359 154.975C30.627 155.26 30.7327 156.637 28.2204 148.753C27.2529 145.242 26.635 141.643 26.383 138.01C29.7733 137.872 42.3266 137.872 43.3185 138.719L43.3266 138.727Z" fill="white"/>
<path d="M174.835 257.035C159.599 257.174 142.663 257.459 134.622 258.444C116.142 260.562 62.5224 262.264 57.3027 260.138C53.8798 258.697 5.55303 150.227 8.05718 111.296C1.04068 118.194 0.837427 119.147 1.2846 126.559C1.99194 138.857 2.97571 151.155 3.82126 163.454C6.78884 218.145 5.52864 220.002 7.91083 249.957C8.39865 254.893 10.6345 279.131 13.5533 282.047C15.9517 284.165 167.071 277.95 171.16 276.818C173.697 276.11 177.071 272.143 176.664 269.187C176.258 266.23 175.526 260.879 174.827 257.027L174.835 257.035Z" fill="#F5BF42"/>
<path d="M168.339 268.649C164.038 268.649 19.0657 274.302 19.0657 274.302C19.0982 271.304 18.09 263.567 16.7892 253.908C10.5207 207.369 10.7808 153.2 10.1304 145.006C10.0979 144.558 9.6995 144.224 9.25234 144.257C8.80517 144.29 8.47182 144.689 8.50434 145.137C9.56129 158.331 8.27669 190.828 14.0086 245.095C14.659 251.041 17.5046 269.863 17.4233 274.318C15.781 275.955 14.3501 277.804 13.1874 279.815C8.8133 266.23 7.05714 223.349 6.46363 209.112C4.75625 167.99 4.28469 163.942 1.76429 125.948C1.47159 121.55 1.34964 119.106 4.18713 116.012C5.30099 115.059 7.30918 112.933 8.33361 111.858C8.65882 111.54 8.65882 111.027 8.34987 110.709C8.03278 110.384 7.52057 110.384 7.20349 110.693C7.18723 110.709 7.1791 110.718 7.16284 110.734C6.13841 111.809 4.16274 113.886 3.05701 114.847C-0.325214 118.528 -0.162607 121.525 0.130085 126.054C2.32528 159.219 3.47166 174.425 4.5286 202.36C5.14651 218.674 5.83759 234.792 7.21162 250.308C7.53683 254.518 10.1142 279.97 12.5207 282.34C13.2199 283.741 14.7403 282.617 14.0411 281.689C15.0899 279.498 16.529 277.527 18.2933 275.865C20.521 276.778 160.753 270.27 168.314 270.27C168.762 270.27 169.127 269.904 169.127 269.456C169.127 269.008 168.762 268.641 168.314 268.641H168.331L168.339 268.649Z" fill="#033A43" stroke="#033A43"/>
<path d="M19.5535 280.035C19.1063 279.995 18.773 279.604 18.8055 279.156C18.8461 278.708 19.2364 278.374 19.6836 278.406C24.4886 278.814 53.5465 277.69 62.498 277.559C62.9452 277.559 63.311 277.918 63.3273 278.358C63.3273 278.806 62.9777 279.18 62.5305 279.188C56.6279 279.286 23.8788 280.41 19.5535 280.035Z" fill="#033A43" stroke="#033A43"/>
<path d="M66.0428 279.188C65.5956 279.188 65.2298 278.822 65.2298 278.374C65.2298 277.926 65.5956 277.559 66.0428 277.559C66.2054 277.559 92.8242 275.914 121.459 274.595C121.906 274.579 122.289 274.921 122.305 275.369C122.321 275.816 121.98 276.199 121.524 276.224C109.5 276.778 66.0916 279.188 66.0347 279.188H66.0428Z" fill="#033A43" stroke="#033A43"/>
<path d="M27.4481 148.85C24.9439 137.595 25.2773 137.432 25.9521 137.098C26.1391 137.016 26.3505 137 26.5456 137.057C42.6112 137.057 43.3835 137.619 43.8063 137.912C45.4974 139.59 49.2618 153.33 48.0504 154.788C47.278 155.716 45.5625 155.725 42.3429 155.668C30.7978 155.448 30.2286 158.152 27.4562 148.842L27.4481 148.85ZM27.1228 138.694C27.3261 140.364 28.1798 144.615 29.0253 148.443C30.2178 152.445 32.5783 154.356 36.1069 154.177C42.6681 153.851 45.782 154.307 46.717 153.802C46.9202 151.872 44.2291 140.967 42.8388 139.248C42.2534 139.061 39.5216 138.702 27.1147 138.686L27.1228 138.694Z" fill="#033A43" stroke="#033A43"/>
<path d="M39.6436 188.49C38.8305 187.464 38.2533 186.267 37.9687 184.988C36.3183 180.061 35.1963 177.357 34.0662 172.844C33.9605 172.405 34.2206 171.965 34.6597 171.859C34.7003 171.851 34.7328 171.843 34.7735 171.843C34.9361 171.826 51.1643 170.32 52.2781 171.15C53.0261 171.883 53.8554 175.695 55.1156 180.207C55.5303 181.86 56.2132 183.514 56.6441 185.216C56.945 185.827 57.0832 186.503 57.0507 187.187C57.01 187.513 56.8149 187.79 56.5303 187.944C55.5384 188.262 40.6436 189.5 39.6517 188.498L39.6436 188.49ZM40.6517 187.187C45.5706 187.285 50.4976 187.065 55.3921 186.535C55.3921 186.511 54.4408 183.53 54.3351 183.221C53.3432 180.24 51.896 174.115 51.2456 172.511C49.4569 172.372 40.6517 172.91 35.8711 173.358C36.1882 174.514 37.1394 177.813 37.863 179.702C38.2939 180.842 38.5948 182.048 39.0013 183.098C39.4485 184.499 40.0013 185.868 40.6436 187.195L40.6517 187.187Z" fill="#033A43" stroke="#033A43"/>
<path d="M52.5546 221.191C51.0261 219.448 48.8797 214.26 47.1885 209.935C46.6926 208.412 46.0178 206.954 45.1885 205.586C44.9527 205.203 45.0665 204.698 45.4486 204.462C45.5543 204.397 45.6763 204.356 45.8064 204.34C53.2619 203.639 62.3272 202.922 63.2378 203.46C63.7745 203.818 64.0915 204.6 64.5062 205.928C64.7826 206.824 64.7989 206.335 66.0347 210.261C66.8152 212.786 67.7339 215.261 68.7827 217.68C68.986 218.071 69.7096 218.975 69.5633 219.692C69.547 220.246 69.2706 220.669 65.2217 220.669C62.2297 221.101 59.1971 221.516 56.2295 221.655C55.4246 221.655 53.3351 222.217 52.5708 221.183L52.5546 221.191ZM47.2129 205.854C48.3837 208.029 51.5871 217.623 53.8148 220.173C54.3595 220.205 54.9042 220.181 55.4408 220.099C58.6686 219.92 61.8801 219.57 65.0753 219.057C65.4005 219.057 66.7014 218.992 67.5957 218.918C66.0997 216.442 63.9777 208.933 63.0346 206.759C62.8557 206.123 62.6281 205.504 62.3516 204.902C61.002 204.755 53.8392 205.252 47.2048 205.854H47.2129Z" fill="#033A43" stroke="#033A43"/>
<path d="M78.3847 248.288C77.9131 246.879 75.9049 234.792 74.4252 233.326C73.8073 232.585 72.1487 232.626 64.5794 233.57C62.3598 233.847 60.254 234.108 59.0914 234.157C58.6523 234.173 58.3109 234.532 58.3109 234.971C58.3109 235.379 59.7011 240.51 59.8963 240.998C60.7581 243.8 61.7175 250.585 63.8964 250.585C65.6932 250.585 77.1733 250.356 78.2058 249.176C78.4009 248.923 78.4579 248.589 78.3766 248.288H78.3847ZM64.1647 249.045C63.2216 248.426 61.8963 241.943 61.441 240.469C61.2459 239.98 60.5142 237.187 60.1402 235.721C63.7013 235.411 71.8479 234.132 73.2788 234.483C74.2545 235.843 76.1732 246.056 76.6773 248.141C72.5308 248.695 68.36 248.996 64.1728 249.045H64.1647Z" fill="#033A43" stroke="#033A43"/>
<path d="M138.281 166.386C121.719 163.405 65.7583 156.001 55.6441 154.804C55.1969 154.747 54.888 154.332 54.9449 153.892C55.0018 153.46 55.4002 153.143 55.8311 153.192C68.6771 154.739 122.15 161.833 138.566 164.789C139.005 164.871 139.305 165.294 139.224 165.734C139.143 166.174 138.72 166.475 138.281 166.394V166.386Z" fill="#033A43" stroke="#033A43"/>
<path d="M141.671 190.567C59.1971 185.99 67.7421 186.332 64.3029 186.747C63.8557 186.804 63.4492 186.478 63.4005 186.031C63.3435 185.583 63.6688 185.175 64.1159 185.126C64.8558 185.037 66.5957 184.841 66.8965 184.841C67.799 184.841 132.76 188.498 141.72 188.938C142.167 188.946 142.525 189.321 142.517 189.769C142.509 190.217 142.135 190.575 141.688 190.567H141.671Z" fill="#033A43" stroke="#033A43"/>
<path d="M77.4741 218.552C77.0269 218.552 76.6529 218.202 76.6529 217.754C76.6529 217.306 77.0025 216.931 77.4578 216.923C82.3685 216.76 145.826 213.812 153.395 213.812C153.842 213.812 154.208 214.178 154.208 214.626C154.208 215.074 153.842 215.441 153.395 215.441C143.11 215.441 108.686 217.9 77.4822 218.552H77.4741Z" fill="#033A43" stroke="#033A43"/>
<path d="M88.3688 247.848C88.3688 247.11 103.898 245.877 134.956 244.15C150.631 243.279 165.436 242.456 172.802 241.943C173.25 241.911 173.64 242.253 173.672 242.701C173.705 243.149 173.363 243.539 172.916 243.572C155.826 244.769 92.8404 247.929 89.5314 248.581C89.1249 248.776 88.6371 248.597 88.4501 248.19C88.4013 248.084 88.3688 247.962 88.3688 247.84V247.848Z" fill="#033A43" stroke="#033A43"/>
<path d="M177.851 135.453C179.786 134.329 181.567 132.952 183.144 131.364C189.226 125.655 187.429 122.478 187.713 120.515C187.779 120.068 188.193 119.758 188.632 119.823C189.079 119.888 189.388 120.304 189.323 120.744C189.104 122.275 190.901 126.314 184.282 132.529C182.591 134.231 180.673 135.705 178.591 136.902C178.193 137.106 177.697 136.943 177.494 136.544C177.29 136.145 177.453 135.648 177.851 135.445V135.453Z" fill="#033A43" stroke="#033A43"/>
<path d="M238.666 189.744C237.431 187.659 233.723 185.061 231.739 183.669C209.609 168.047 194.104 147.083 190.941 153.64C190.746 154.047 190.258 154.21 189.852 154.014C189.445 153.819 189.283 153.33 189.478 152.923C189.917 151.888 190.827 151.139 191.917 150.887C198.624 149.494 210.69 166.809 232.666 182.325C234.943 183.929 238.65 186.527 240.057 188.906C240.357 189.248 240.317 189.769 239.975 190.07C239.634 190.372 239.114 190.331 238.813 189.989C238.748 189.916 238.699 189.834 238.666 189.744Z" fill="#033A43" stroke="#033A43"/>
<path d="M104.426 69.1475C103.947 69.1475 105.947 70.8579 74.3764 41.3664C74.0512 41.0569 74.0268 40.5438 74.3358 40.218C74.3927 40.161 74.4577 40.1039 74.5228 40.0632C74.9293 39.827 85.263 38.5809 85.263 30.1676C85.263 29.5567 85.6857 29.0029 86.8728 29.8906C88.8728 31.3892 94.995 36.9276 116.248 56.1406C116.589 56.4338 116.63 56.947 116.329 57.289C116.036 57.6311 115.524 57.6718 115.183 57.3705C115.175 57.3623 115.166 57.3542 115.158 57.346C113.443 55.7904 92.0681 36.5122 86.7671 31.8372C85.8727 37.8968 80.1652 40.3076 76.6041 41.2279L104.971 67.7467C105.296 68.0562 105.312 68.5693 105.012 68.8951C104.857 69.058 104.638 69.1557 104.418 69.1557L104.426 69.1475Z" fill="#033A43" stroke="#033A43"/>
<path d="M237.569 194.371C228.414 194.371 218.454 183.481 212.113 178.081C207.974 174.661 196.096 163.698 192.665 161.01C190.096 158.999 187.445 156.914 186.209 154.039C185.713 153.012 185.453 151.888 185.437 150.748C185.437 146.13 171.648 135.86 171.29 135.493C168.965 133.759 169.079 133.417 169.225 132.977C169.396 132.545 169.859 132.309 170.306 132.415C171.111 132.488 171.924 132.439 172.721 132.276C176.599 131.34 180.038 127.593 181.583 124.514C182.429 123.081 182.453 115.775 185.291 116.916C185.705 117.087 185.909 117.559 185.738 117.974C185.6 118.325 185.242 118.528 184.868 118.479C184.006 119.717 183.738 124.067 182.998 125.305C181.047 129.222 176.624 133.474 172.03 134.027C176.079 137.228 187.063 145.674 187.063 150.756C187.063 155.839 193.535 159.178 197.25 162.745C207.901 172.397 212.877 176.518 216.788 180.093C223.341 186.088 232.3 194.305 239.675 192.505C242.057 191.838 244.138 190.355 245.545 188.311C245.797 187.936 246.309 187.847 246.675 188.099C247.049 188.352 247.138 188.865 246.886 189.231C244.789 192.351 241.309 194.273 237.553 194.371H237.569Z" fill="#033A43" stroke="#033A43"/>
</g>
<defs>
<clipPath id="clip0_180_286">
<rect width="248" height="283" fill="white"/>
</clipPath>
</defs>
</svg>
