<svg width="300" viewBox="0 0 1141 395" fill="none" xmlns="http://www.w3.org/2000/svg">
<path d="M1085.98 278.899C1092.34 290.49 1095.55 303.4 1095.55 317.303C1095.55 331.206 1092.35 344.116 1086.02 355.693C1079.45 367.72 1070.13 377.267 1058.31 384.07C1046.73 390.734 1033.73 394.116 1019.67 394.116C1005.61 394.116 992.543 390.719 980.997 384.017C977.555 382.026 974.323 379.795 971.312 377.329C968.211 380.016 964.864 382.444 961.293 384.612C949.886 391.511 937.167 395.003 923.462 395.003C909.757 395.003 898.177 392.235 887.124 386.771C882.519 390.057 875.496 393.358 865.87 393.358H856.626C846.028 393.358 836.454 389.222 829.508 382.041C822.595 389.227 813.012 393.358 802.313 393.358H792.949C788.277 393.358 782.026 392.542 775.798 389.27C767.133 392.729 757.933 394.476 748.402 394.476C734.175 394.476 721.044 391.089 709.374 384.406C708.857 384.113 708.344 383.811 707.842 383.504C701.193 389.865 692.246 393.358 682.571 393.358H672.83C672.298 393.358 671.777 393.344 671.255 393.315C666.947 393.142 662.796 392.274 658.952 390.753C654.63 392.456 649.91 393.348 644.979 393.348H635.238C627.162 393.348 619.589 390.902 613.414 386.378C607.253 390.911 599.665 393.358 591.566 393.358H581.82C574.462 393.358 567.521 391.329 561.681 387.548C561.298 387.73 560.905 387.908 560.518 388.081C551.03 392.326 540.862 394.476 530.292 394.476C516.066 394.476 502.935 391.089 491.264 384.401C479.412 377.627 470.005 368.157 463.308 356.244C456.736 344.582 453.399 331.552 453.399 317.533C453.399 312.405 453.844 307.41 454.735 302.57C446.956 304.944 438.311 306.134 428.837 306.134C420.087 306.134 411.776 305.218 404.132 303.414C395.367 301.346 387.171 297.839 379.766 292.989C379.598 292.879 379.431 292.764 379.263 292.653C371.097 287.064 365.769 278.923 364.088 269.721C363.236 269.779 362.375 269.803 361.508 269.803H349.665C342.461 269.803 335.663 268.028 329.828 264.693C323.993 268.018 317.205 269.793 310.005 269.793H298.162C291.815 269.793 285.783 268.416 280.445 265.806H280.441C275.094 268.426 269.052 269.812 262.686 269.812H250.848C246.027 269.812 241.388 269.016 237.099 267.495C230.938 269.62 224.443 270.7 217.707 270.7C210.11 270.7 202.882 269.414 196.089 266.857C192.331 278.4 185.596 286.311 179.636 291.396C168.148 301.183 153.294 306.134 135.467 306.134C129.182 306.134 122.355 305.247 114.605 303.414C114.256 303.333 113.901 303.241 113.557 303.145C98.5592 299.02 88.4826 285.826 88.4826 270.316C88.4826 269.769 88.4922 269.232 88.5161 268.699C87.1231 268.368 85.7588 267.97 84.428 267.495C78.272 269.62 71.776 270.7 65.036 270.7C52.1781 270.7 40.3734 267.011 29.9474 259.733C20.2681 252.973 12.6807 243.824 7.40068 232.54C2.49402 222.072 0 210.433 0 197.965C0 185.496 2.49402 173.857 7.40546 163.37C12.6951 152.091 20.2824 142.947 29.9474 136.197C39.5501 129.495 50.316 125.834 62.001 125.297C63.8536 120.135 66.7641 115.486 70.608 111.629C77.688 104.533 87.4821 100.623 98.1762 100.623H108.913C109.282 100.609 109.646 100.599 110.014 100.599C113.471 100.599 116.836 101.007 120.043 101.803C120.742 101.002 121.475 100.215 122.24 99.4477C130.981 90.6874 142.149 86.0626 154.543 86.0626C157.707 86.0626 160.8 86.3697 163.791 86.979C164.845 85.7268 165.998 84.5322 167.248 83.3952C165.529 82.2006 163.925 80.8573 162.456 79.3845C156.161 73.0758 152.69 64.6801 152.69 55.7567C152.69 51.7988 153.289 48.0279 154.476 44.5257C158.54 31.8939 165.864 21.3921 176.247 13.3035C186.98 4.93664 199.78 0.426979 213.26 0.254268C213.385 0.254268 213.514 0.249471 213.638 0.249471H216.046C226.903 0.249471 237.018 2.79695 246.113 7.81515C250.273 10.1132 254.069 12.8142 257.468 15.9086C259.263 14.359 261.14 12.9005 263.097 11.538C274.084 3.88119 286.448 0 299.857 0C313.265 0 325.668 3.90038 336.63 11.5908C337.746 12.3776 338.832 13.1884 339.89 14.0327C340.192 13.7881 340.498 13.5434 340.805 13.3035C351.542 4.93664 364.342 0.426979 377.817 0.254268C377.947 0.254268 378.071 0.249471 378.2 0.249471H380.604C391.46 0.249471 401.58 2.79695 410.675 7.81515C411.403 8.21815 412.126 8.63553 412.829 9.06251C418.583 4.22181 425.965 1.41047 434.031 1.41047H478.459C489.201 1.41047 499.096 6.21758 505.606 14.594C509.072 19.0557 513.203 26.7126 513.203 37.886V43.8493C513.203 50.3211 511.829 55.5984 510.01 59.7483C514.735 67.4435 518.397 77.7437 518.397 91.1672C518.397 102.907 515.73 113.615 510.474 122.989C510.422 123.085 510.369 123.181 510.316 123.272C509.393 124.903 508.402 126.472 507.348 127.983C513.236 126.544 519.378 125.815 525.735 125.815C539.077 125.815 551.465 129.01 562.557 135.314H562.562C566.434 137.516 570.039 140.016 573.366 142.803C576.501 140.116 579.895 137.698 583.533 135.554C594.486 129.092 606.745 125.815 619.962 125.815H620.115C630.489 125.815 640.633 128.103 650.273 132.613C653.098 133.932 655.798 135.415 658.368 137.046C659.316 136.446 660.278 135.87 661.26 135.314C672.356 129.01 684.745 125.815 698.086 125.815C711.427 125.815 723.825 129.01 734.917 135.319C735.238 135.501 735.558 135.683 735.874 135.87C742.672 130.291 751.379 127.269 760.786 127.269H772.624C776.884 127.269 780.671 127.849 784.007 128.789C789.632 126.794 795.434 125.786 801.317 125.786C823.773 125.786 837.818 135.434 845.803 143.873C846.075 144.151 846.348 144.439 846.612 144.727C854.491 153.41 859.498 164.061 861.576 176.51C863.366 176.314 865.19 176.213 867.038 176.213C868.507 176.213 869.958 176.275 871.394 176.405V165.941C871.394 155.238 875.29 145.432 882.361 138.332C889.474 131.207 899.264 127.297 909.953 127.297H921.791C929 127.297 935.798 129.072 941.633 132.407C947.464 129.082 954.252 127.307 961.456 127.307H972.169C972.533 127.292 972.897 127.288 973.266 127.288C981.547 127.288 989.283 129.634 995.645 133.985C997.823 132.675 1000.11 131.49 1002.5 130.416C1011.48 126.386 1021.41 124.342 1032.01 124.342C1039.59 124.342 1047.34 125.503 1055.03 127.791C1062.94 130.142 1070.27 133.616 1076.85 138.111C1077.02 138.226 1077.2 138.351 1077.37 138.471C1087.25 145.542 1092.92 156.202 1092.92 167.726C1092.92 173.651 1091.46 179.394 1088.68 184.604C1093 191.258 1096.89 200.858 1096.89 213.825C1096.89 225.574 1093.11 236.729 1085.95 246.084C1081.85 251.457 1076.84 256.067 1071 259.853C1076.97 265.264 1081.98 271.635 1085.98 278.899Z" fill="white"/>
<g clip-path="url(#clip0_629_2203)">
<path d="M108.094 130.135C110.955 130.135 113.151 130.9 114.683 132.431C116.214 133.963 116.98 136.159 116.98 139.02V230.808C116.98 233.669 116.214 235.866 114.683 237.397C113.151 238.928 110.955 239.694 108.094 239.694H96.2466C93.3854 239.694 91.1892 238.928 89.6579 237.397C88.1266 235.866 87.3609 233.669 87.3609 230.808V228.29C84.2983 232.239 80.7017 235.271 76.5511 237.397C72.4105 239.523 67.9173 240.58 63.0816 240.58C56.372 240.58 50.3274 238.707 44.9476 234.959C39.5679 231.211 35.3467 226.073 32.2941 219.565C29.2315 213.047 27.7002 205.743 27.7002 197.653C27.7002 189.564 29.2315 182.26 32.2941 175.741C35.3568 169.223 39.5679 164.095 44.9476 160.348C50.3274 156.6 56.372 154.726 63.0816 154.726C67.9173 154.726 72.4105 155.784 76.5511 157.91C80.6917 160.035 84.2983 163.068 87.3609 167.017V139.04C87.3609 136.179 88.1266 133.983 89.6579 132.452C91.1892 130.92 93.3854 130.155 96.2466 130.155H108.094V130.135ZM82.9181 209.269C85.88 206.156 87.3609 202.288 87.3609 197.643C87.3609 192.999 85.88 189.13 82.9181 186.017C79.9562 182.904 76.2085 181.353 71.665 181.353C67.1214 181.353 63.3536 182.904 60.3413 186.017C57.3291 189.13 55.828 192.999 55.828 197.643C55.828 202.288 57.3291 206.156 60.3413 209.269C63.3536 212.382 67.1214 213.934 71.665 213.934C76.2085 213.934 79.9562 212.382 82.9181 209.269Z" fill="#033A43"/>
<path d="M163.02 156.781C164.4 156.781 165.488 157.174 166.274 157.97C167.06 158.766 167.463 159.844 167.463 161.224V247.088C167.463 256.165 164.48 263.248 158.506 268.335C152.532 273.413 144.221 275.962 133.562 275.962C129.613 275.962 124.928 275.317 119.498 274.037C117.332 273.443 116.244 272.063 116.244 269.897C116.244 269.303 116.295 268.859 116.395 268.567L119.206 256.276C119.7 254.01 120.939 252.871 122.903 252.871C123.195 252.871 123.74 252.972 124.535 253.163C126.016 253.556 127.447 253.758 128.827 253.758C131.688 253.758 133.905 252.962 135.486 251.39C137.068 249.809 137.854 247.643 137.854 244.872V161.224C137.854 159.844 138.247 158.756 139.043 157.97C139.838 157.184 140.916 156.781 142.297 156.781H163.02ZM141.329 142.939C138.216 139.826 136.665 136.008 136.665 131.464C136.665 126.921 138.216 123.395 141.329 120.282C144.442 117.169 148.21 115.617 152.653 115.617C157.096 115.617 160.743 117.169 163.906 120.282C167.06 123.395 168.641 127.122 168.641 131.464C168.641 135.806 167.06 139.705 163.906 142.868C160.753 146.032 156.995 147.603 152.653 147.603C148.311 147.603 144.432 146.052 141.329 142.939Z" fill="#033A43"/>
<path d="M260.873 156.781C263.734 156.781 265.93 157.547 267.462 159.078C268.993 160.61 269.759 162.806 269.759 165.667V230.808C269.759 233.669 268.993 235.865 267.462 237.397C265.93 238.928 263.734 239.694 260.873 239.694H249.025C246.164 239.694 243.968 238.928 242.437 237.397C240.905 235.865 240.14 233.669 240.14 230.808V228.29C237.077 232.239 233.481 235.271 229.33 237.397C225.189 239.522 220.696 240.58 215.86 240.58C209.151 240.58 203.106 238.706 197.726 234.959C192.347 231.211 188.126 226.073 185.073 219.565C182.01 213.047 180.479 205.743 180.479 197.653C180.479 189.563 182.01 182.259 185.073 175.741C188.136 169.223 192.347 164.095 197.726 160.348C203.106 156.6 209.151 154.726 215.86 154.726C220.696 154.726 225.189 155.784 229.33 157.91C233.47 160.035 237.077 163.068 240.14 167.017V165.687C240.14 162.826 240.905 160.63 242.437 159.098C243.968 157.567 246.164 156.801 249.025 156.801H260.873V156.781ZM235.707 209.269C238.669 206.156 240.15 202.287 240.15 197.643C240.15 192.999 238.669 189.13 235.707 186.017C232.745 182.904 228.997 181.353 224.454 181.353C219.91 181.353 216.142 182.904 213.13 186.017C210.118 189.13 208.617 192.999 208.617 197.643C208.617 202.287 210.118 206.156 213.13 209.269C216.142 212.382 219.91 213.933 224.454 213.933C228.997 213.933 232.745 212.382 235.707 209.269Z" fill="#033A43"/>
<path d="M360.287 164.478C365.858 170.603 368.649 179.137 368.649 190.087V230.798C368.649 233.659 367.883 235.856 366.352 237.387C364.821 238.918 362.624 239.684 359.763 239.684H347.916C345.055 239.684 342.858 238.918 341.327 237.387C339.796 235.856 339.03 233.659 339.03 230.798V193.785C339.03 190.037 338.073 187.126 336.139 185.05C334.204 182.975 331.525 181.937 328.069 181.937C324.906 181.937 322.296 183.126 320.221 185.493C318.146 187.861 317.108 190.873 317.108 194.52V230.788C317.108 233.649 316.342 235.845 314.811 237.377C313.28 238.908 311.084 239.674 308.222 239.674H296.375C293.514 239.674 291.318 238.908 289.786 237.377C288.255 235.845 287.489 233.649 287.489 230.788V165.647C287.489 162.786 288.255 160.589 289.786 159.058C291.318 157.527 293.514 156.761 296.375 156.761H308.222C310.983 156.761 313.129 157.456 314.66 158.837C316.191 160.217 317.007 162.242 317.098 164.901C320.06 161.839 323.243 159.471 326.649 157.799C330.054 156.116 333.479 155.28 336.935 155.28C346.898 155.28 354.676 158.343 360.257 164.458L360.287 164.478Z" fill="#033A43"/>
<path d="M459.853 156.781C462.714 156.781 464.91 157.547 466.441 159.078C467.973 160.609 468.738 162.806 468.738 165.667V233.77C468.738 247.884 465.303 258.442 458.452 265.454C451.592 272.456 441.155 275.962 427.141 275.962C420.623 275.962 414.659 275.317 409.229 274.037C403.799 272.758 398.812 270.632 394.278 267.67C392.405 266.391 391.468 264.809 391.468 262.935C391.468 261.253 392.112 259.732 393.392 258.341L401.834 248.126C403.214 246.353 404.897 245.456 406.871 245.456C407.959 245.456 409.39 245.849 411.163 246.645C415.606 249.013 419.948 250.201 424.189 250.201C435.14 250.201 440.621 244.227 440.621 232.289V228.592C437.558 232.44 433.982 235.402 429.891 237.477C425.791 239.553 421.379 240.59 416.644 240.59C409.934 240.59 403.889 238.716 398.51 234.969C393.13 231.221 388.909 226.083 385.856 219.575C382.794 213.057 381.262 205.753 381.262 197.663C381.262 189.573 382.794 182.269 385.856 175.751C388.919 169.233 393.13 164.105 398.51 160.358C403.889 156.61 409.934 154.736 416.644 154.736C421.379 154.736 425.801 155.774 429.891 157.849C433.982 159.924 437.568 162.886 440.621 166.735V165.697C440.621 162.836 441.386 160.64 442.918 159.108C444.449 157.577 446.645 156.811 449.506 156.811H459.873L459.853 156.781ZM435.352 210.307C438.163 207.889 439.915 204.806 440.611 201.058V194.248C439.915 190.5 438.173 187.418 435.352 185C432.541 182.582 429.156 181.373 425.207 181.373C420.663 181.373 416.885 182.924 413.883 186.037C410.871 189.15 409.37 193.019 409.37 197.663C409.37 202.308 410.871 206.176 413.883 209.289C416.895 212.402 420.663 213.954 425.207 213.954C429.156 213.954 432.531 212.745 435.352 210.327V210.307Z" fill="#033A43"/>
<path d="M546.311 160.932C552.92 164.68 558.129 169.818 561.927 176.326C565.725 182.844 567.629 190.148 567.629 198.238C567.629 206.327 565.725 213.631 561.927 220.15C558.129 226.668 552.92 231.796 546.311 235.543C539.703 239.291 532.298 241.165 524.107 241.165C515.917 241.165 508.512 239.291 501.903 235.543C495.285 231.796 490.086 226.658 486.288 220.15C482.49 213.641 480.586 206.327 480.586 198.238C480.586 190.148 482.49 182.844 486.288 176.326C490.086 169.808 495.295 164.68 501.903 160.932C508.512 157.184 515.917 155.311 524.107 155.311C532.298 155.311 539.703 157.184 546.311 160.932ZM534.021 208.826C536.68 206.015 538.02 202.489 538.02 198.238C538.02 193.986 536.69 190.46 534.021 187.649C531.361 184.839 528.047 183.428 524.097 183.428C520.148 183.428 516.844 184.839 514.174 187.649C511.514 190.46 510.175 193.996 510.175 198.238C510.175 202.479 511.504 206.015 514.174 208.826C516.834 211.637 520.148 213.047 524.097 213.047C528.047 213.047 531.351 211.637 534.021 208.826Z" fill="#033A43"/>
<path d="M649.655 219.847C650.934 220.835 651.579 221.923 651.579 223.101C651.579 223.988 651.186 224.975 650.39 226.063C646.643 230.798 641.898 234.506 636.175 237.165C630.453 239.825 624.58 241.165 618.555 241.165H618.404C610.506 241.165 603.373 239.291 597.006 235.543C590.639 231.796 585.632 226.658 581.975 220.15C578.318 213.631 576.494 206.327 576.494 198.238C576.494 190.148 578.318 182.844 581.975 176.326C585.622 169.808 590.639 164.68 597.006 160.932C603.373 157.184 610.506 155.311 618.404 155.311H618.555C624.58 155.311 630.453 156.64 636.175 159.31C641.898 161.98 646.633 165.677 650.39 170.412C651.176 171.5 651.579 172.487 651.579 173.374C651.579 174.563 650.934 175.641 649.655 176.628L637.072 185.957C635.984 186.753 634.946 187.146 633.959 187.146C632.871 187.146 631.833 186.803 630.846 186.108C627.985 184.335 624.872 183.438 621.517 183.438C617.175 183.438 613.518 184.849 610.566 187.66C607.604 190.47 606.123 194.006 606.123 198.248C606.123 202.489 607.604 206.025 610.566 208.836C613.528 211.647 617.175 213.057 621.517 213.057C624.973 213.057 628.075 212.171 630.846 210.387C631.833 209.702 632.871 209.35 633.959 209.35C634.946 209.35 635.984 209.743 637.072 210.539L649.655 219.867V219.847Z" fill="#033A43"/>
<path d="M718.785 160.932C725.394 164.68 730.603 169.818 734.401 176.326C738.199 182.844 740.103 190.148 740.103 198.238C740.103 206.327 738.199 213.631 734.401 220.15C730.603 226.668 725.394 231.796 718.785 235.543C712.177 239.291 704.772 241.165 696.581 241.165C688.391 241.165 680.986 239.291 674.377 235.543C667.758 231.796 662.56 226.658 658.762 220.15C654.964 213.641 653.06 206.327 653.06 198.238C653.06 190.148 654.964 182.844 658.762 176.326C662.56 169.808 667.769 164.68 674.377 160.932C680.986 157.184 688.391 155.311 696.581 155.311C704.772 155.311 712.177 157.184 718.785 160.932ZM706.505 208.826C709.164 206.015 710.504 202.489 710.504 198.238C710.504 193.986 709.174 190.46 706.505 187.649C703.845 184.839 700.531 183.428 696.581 183.428C692.632 183.428 689.328 184.839 686.658 187.649C683.998 190.46 682.658 193.996 682.658 198.238C682.658 202.479 683.988 206.015 686.658 208.826C689.318 211.637 692.632 213.047 696.581 213.047C700.531 213.047 703.835 211.637 706.505 208.826Z" fill="#033A43"/>
<path d="M823.237 164.478C828.808 170.603 831.599 179.137 831.599 190.087V230.798C831.599 233.659 830.833 235.856 829.302 237.387C827.77 238.918 825.574 239.684 822.713 239.684H810.866C808.004 239.684 805.808 238.918 804.277 237.387C802.746 235.856 801.98 233.659 801.98 230.798V193.785C801.98 190.037 801.023 187.126 799.089 185.05C797.164 182.975 794.474 181.937 791.019 181.937C787.856 181.937 785.246 183.126 783.171 185.493C781.096 187.861 780.058 190.873 780.058 194.52V230.788C780.058 233.649 779.292 235.845 777.761 237.377C776.23 238.908 774.033 239.674 771.172 239.674H759.325C756.464 239.674 754.267 238.908 752.736 237.377C751.205 235.845 750.439 233.649 750.439 230.788V165.647C750.439 162.786 751.205 160.589 752.736 159.058C754.267 157.527 756.464 156.761 759.325 156.761H771.172C773.933 156.761 776.079 157.456 777.61 158.837C779.141 160.217 779.957 162.242 780.048 164.901C783.01 161.839 786.193 159.471 789.598 157.799C793.004 156.116 796.429 155.28 799.884 155.28C809.848 155.28 817.626 158.343 823.207 164.458L823.237 164.478Z" fill="#033A43"/>
<path d="M853.067 235.986C849.612 232.531 847.889 228.289 847.889 223.252C847.889 218.215 849.612 214.145 853.067 210.74C856.523 207.335 860.714 205.632 865.65 205.632C870.587 205.632 874.657 207.355 878.163 210.81C881.669 214.266 883.422 218.417 883.422 223.242C883.422 228.068 881.669 232.521 878.163 235.976C874.657 239.432 870.486 241.155 865.65 241.155C860.815 241.155 856.523 239.432 853.067 235.976V235.986Z" fill="#033A43"/>
<path d="M971.956 156.781C974.817 156.781 977.013 157.547 978.544 159.078C980.076 160.61 980.841 162.806 980.841 165.667V230.808C980.841 233.669 980.076 235.865 978.544 237.397C977.013 238.928 974.817 239.694 971.956 239.694H960.108C957.348 239.694 955.202 239.009 953.671 237.618C952.139 236.238 951.323 234.213 951.233 231.554C948.271 234.616 945.087 236.984 941.682 238.656C938.277 240.328 934.841 241.175 931.396 241.175C921.422 241.175 913.655 238.112 908.074 231.997C902.492 225.882 899.712 217.339 899.712 206.388V165.677C899.712 162.816 900.478 160.62 902.009 159.088C903.54 157.557 905.736 156.791 908.598 156.791H920.445C923.306 156.791 925.502 157.557 927.034 159.088C928.565 160.62 929.331 162.816 929.331 165.677V202.69C929.331 206.438 930.288 209.35 932.222 211.425C934.146 213.5 936.836 214.538 940.292 214.538C943.445 214.538 946.064 213.349 948.14 210.982C950.215 208.614 951.253 205.602 951.253 201.955V165.687C951.253 162.826 952.018 160.63 953.55 159.098C955.081 157.567 957.277 156.801 960.138 156.801H971.986L971.956 156.781Z" fill="#033A43"/>
<path d="M1027.62 183.952C1029 184.496 1031.31 185.111 1034.58 185.806C1040.5 187.186 1045.58 188.717 1049.83 190.4C1054.07 192.082 1057.82 194.792 1061.08 198.54C1064.34 202.287 1065.97 207.274 1065.97 213.49C1065.97 218.719 1064.37 223.434 1061.15 227.625C1057.94 231.826 1053.53 235.13 1047.91 237.548C1042.29 239.966 1035.96 241.175 1028.96 241.175C1023.43 241.175 1017.85 240.238 1012.22 238.364C1006.6 236.49 1001.56 233.871 997.122 230.516C995.147 229.136 994.16 227.403 994.16 225.338C994.16 223.464 994.996 221.691 996.678 220.008L1004.08 212.463C1005.66 210.79 1007.44 209.944 1009.41 209.944C1010.89 209.944 1012.57 210.488 1014.45 211.576C1019.08 214.044 1023.92 215.273 1028.96 215.273C1031.32 215.273 1033.27 214.981 1034.8 214.387C1036.33 213.792 1037.1 213.007 1037.1 212.019C1037.1 211.334 1036.48 210.81 1035.24 210.468C1034 210.125 1031.91 209.652 1028.96 209.058C1023.03 207.869 1017.91 206.468 1013.56 204.836C1009.22 203.204 1005.32 200.444 1001.87 196.545C998.411 192.646 996.688 187.297 996.688 180.486C996.688 175.449 998.169 170.916 1001.13 166.866C1004.09 162.816 1008.16 159.632 1013.34 157.315C1018.52 154.998 1024.32 153.84 1030.74 153.84C1035.47 153.84 1040.34 154.575 1045.33 156.056C1050.31 157.537 1054.83 159.663 1058.88 162.423C1060.95 163.904 1061.99 165.586 1061.99 167.46C1061.99 169.334 1061.1 171.117 1059.33 172.79L1051.79 180.194C1050.1 181.877 1048.33 182.713 1046.46 182.713C1045.08 182.713 1043.39 182.219 1041.42 181.232C1038.26 179.751 1035.2 179.016 1032.24 179.016C1030.37 179.016 1028.79 179.308 1027.51 179.902C1026.23 180.497 1025.58 181.182 1025.58 181.977C1025.58 182.773 1026.28 183.438 1027.66 183.972L1027.62 183.952Z" fill="#033A43"/>
<path d="M560.466 344.931C561.393 345.687 561.856 346.533 561.856 347.46C561.856 348.306 561.564 349.062 560.97 349.737C557.171 354.3 552.436 357.847 546.785 360.375C541.123 362.904 535.088 364.173 528.671 364.173C519.634 364.173 511.524 362.128 504.351 358.028C497.168 353.938 491.557 348.296 487.507 341.113C483.457 333.94 481.422 325.911 481.422 317.045C481.422 308.18 483.447 300.15 487.507 292.977C491.557 285.804 497.178 280.163 504.351 276.062C511.524 271.972 519.634 269.917 528.671 269.917C535.088 269.917 541.123 271.186 546.785 273.715C552.447 276.254 557.171 279.84 560.97 284.485C561.564 285.16 561.856 285.875 561.856 286.641C561.856 287.487 561.393 288.373 560.466 289.3L550.714 297.531C549.868 298.206 549.072 298.549 548.306 298.549C547.631 298.549 546.825 298.216 545.898 297.531C543.621 295.758 540.982 294.388 537.98 293.411C534.978 292.443 531.875 291.95 528.671 291.95C523.855 291.95 519.614 293.088 515.937 295.365C512.26 297.642 509.429 300.704 507.454 304.553C505.47 308.401 504.472 312.552 504.472 317.035C504.472 321.518 505.459 325.669 507.454 329.507C509.439 333.356 512.27 336.408 515.937 338.695C519.614 340.972 523.855 342.11 528.671 342.11C531.965 342.11 535.088 341.647 538.04 340.72C540.992 339.793 543.611 338.443 545.898 336.67C546.825 335.995 547.631 335.653 548.306 335.653C549.062 335.653 549.868 335.995 550.714 336.67L560.466 344.901V344.931Z" fill="#DA6A9E"/>
<path d="M643.439 271.076C645.635 271.076 647.308 271.65 648.446 272.788C649.584 273.927 650.159 275.599 650.159 277.795V356.336C650.159 358.451 649.584 360.093 648.446 361.272C647.308 362.461 645.635 363.045 643.439 363.045H633.687C631.571 363.045 629.929 362.451 628.75 361.272C627.572 360.093 626.977 358.441 626.977 356.336V326.445H596.573V356.336C596.573 358.532 595.998 360.194 594.86 361.343C593.722 362.481 592.09 363.055 589.984 363.055H580.232C578.116 363.055 576.474 362.461 575.296 361.282C574.117 360.103 573.522 358.451 573.522 356.346V277.805C573.522 275.609 574.117 273.947 575.296 272.798C576.474 271.66 578.127 271.086 580.232 271.086H589.984C592.09 271.086 593.722 271.66 594.86 272.798C595.998 273.937 596.573 275.609 596.573 277.805V306.558H626.977V277.805C626.977 275.609 627.572 273.947 628.75 272.798C629.929 271.66 631.581 271.086 633.687 271.086H643.439V271.076Z" fill="#DA6A9E"/>
<path d="M671.305 363.045C669.189 363.045 667.547 362.451 666.368 361.272C665.19 360.093 664.595 358.441 664.595 356.336V277.795C664.595 275.599 665.19 273.937 666.368 272.788C667.547 271.65 669.199 271.076 671.305 271.076H681.057C683.162 271.076 684.794 271.65 685.933 272.788C687.071 273.927 687.645 275.599 687.645 277.795V356.336C687.645 358.532 687.071 360.194 685.933 361.343C684.794 362.481 683.162 363.055 681.057 363.055H671.305V363.045Z" fill="#DA6A9E"/>
<path d="M778.728 344.931C779.655 345.687 780.119 346.533 780.119 347.46C780.119 348.306 779.827 349.062 779.232 349.737C775.434 354.3 770.699 357.847 765.047 360.375C759.386 362.904 753.351 364.173 746.934 364.173C737.897 364.173 729.787 362.128 722.614 358.028C715.431 353.938 709.819 348.296 705.769 341.113C701.72 333.94 699.685 325.911 699.685 317.045C699.685 308.18 701.71 300.15 705.769 292.977C709.819 285.804 715.441 280.163 722.614 276.062C729.787 271.972 737.897 269.917 746.934 269.917C753.351 269.917 759.386 271.186 765.047 273.715C770.709 276.254 775.434 279.84 779.232 284.485C779.827 285.16 780.119 285.875 780.119 286.641C780.119 287.487 779.655 288.373 778.728 289.3L768.976 297.531C768.13 298.206 767.334 298.549 766.569 298.549C765.894 298.549 765.088 298.216 764.161 297.531C761.884 295.758 759.245 294.388 756.242 293.411C753.24 292.443 750.137 291.95 746.934 291.95C742.118 291.95 737.877 293.088 734.2 295.365C730.522 297.642 727.691 300.704 725.717 304.553C723.732 308.401 722.735 312.552 722.735 317.035C722.735 321.518 723.722 325.669 725.717 329.507C727.702 333.356 730.532 336.408 734.2 338.695C737.877 340.972 742.118 342.11 746.934 342.11C750.228 342.11 753.351 341.647 756.303 340.72C759.255 339.793 761.874 338.443 764.161 336.67C765.088 335.995 765.894 335.653 766.569 335.653C767.324 335.653 768.13 335.995 768.976 336.67L778.728 344.901V344.931Z" fill="#DA6A9E"/>
<path d="M869.801 355.449C870.134 356.376 870.305 357.303 870.305 358.24C870.305 359.761 869.801 360.939 868.784 361.786C867.766 362.632 866.336 363.055 864.482 363.055H855.234C851.516 363.055 848.937 361.282 847.507 357.736L843.829 347.984H812.286L808.609 357.736C807.259 361.282 804.68 363.055 800.882 363.055H791.513C789.659 363.055 788.219 362.612 787.211 361.725C786.194 360.839 785.69 359.68 785.69 358.24C785.69 357.313 785.861 356.386 786.194 355.449L815.581 276.405C816.85 272.859 819.379 271.086 823.177 271.086H832.808C836.687 271.086 839.266 272.859 840.535 276.405L869.801 355.449ZM828.123 305.278L818.371 331.502H837.755L828.133 305.278H828.123Z" fill="#DA6A9E"/>
<path d="M966.324 318.073C966.324 326.858 964.38 334.796 960.501 341.889C956.612 348.981 951.313 354.552 944.604 358.612C937.894 362.662 930.399 364.697 922.118 364.697C912.748 364.697 904.296 362.612 896.78 358.431C889.265 354.25 883.351 348.487 879.049 341.143C874.748 333.799 872.592 325.568 872.592 316.441C872.592 307.313 874.697 299.213 878.929 291.869C883.15 284.525 888.932 278.762 896.287 274.581C903.631 270.401 911.872 268.315 920.989 268.315C927.326 268.315 933.32 269.605 938.982 272.184C944.644 274.763 949.369 278.329 953.167 282.883C953.761 283.558 954.054 284.273 954.054 285.039C954.054 285.966 953.59 286.852 952.663 287.698L942.911 295.929C942.065 296.604 941.309 296.947 940.634 296.947C939.879 296.947 939.033 296.614 938.106 295.929C935.91 294.156 933.31 292.786 930.318 291.809C927.316 290.842 924.213 290.348 921.009 290.348C916.194 290.348 911.862 291.486 908.024 293.763C904.185 296.04 901.163 299.173 898.967 303.132C896.77 307.102 895.672 311.534 895.672 316.431C895.672 321.327 896.851 325.911 899.218 329.92C901.586 333.93 904.86 337.073 909.041 339.36C913.222 341.637 917.927 342.775 923.165 342.775C928.404 342.775 933.189 341.274 937.038 338.282C940.876 335.29 943.224 331.421 944.07 326.696H924.818C922.702 326.696 921.06 326.102 919.881 324.923C918.692 323.745 918.108 322.092 918.108 319.987V314.537C918.108 312.431 918.682 310.799 919.821 309.661C920.959 308.522 922.631 307.948 924.828 307.948H959.413C961.519 307.948 963.171 308.371 964.35 309.217C965.528 310.064 966.163 311.293 966.254 312.895C966.334 313.993 966.385 315.635 966.385 317.831V318.083L966.324 318.073Z" fill="#DA6A9E"/>
<path d="M1042.27 275.962C1049.32 280.062 1054.81 285.674 1058.74 292.806C1062.67 299.949 1064.63 307.948 1064.63 316.814C1064.63 325.679 1062.67 333.708 1058.74 340.881C1054.81 348.064 1049.32 353.676 1042.27 357.726C1035.21 361.776 1027.25 363.811 1018.39 363.811C1009.52 363.811 1001.58 361.786 994.573 357.726C987.561 353.676 982.101 348.054 978.172 340.881C974.243 333.708 972.278 325.679 972.278 316.814C972.278 307.948 974.243 299.949 978.172 292.806C982.101 285.674 987.561 280.052 994.573 275.962C1001.58 271.872 1009.52 269.816 1018.39 269.816C1027.25 269.816 1035.21 271.862 1042.27 275.962ZM1029.85 338.534C1033.19 336.378 1035.79 333.426 1037.64 329.669C1039.49 325.911 1040.43 321.629 1040.43 316.814C1040.43 311.998 1039.5 307.817 1037.64 304.019C1035.79 300.221 1033.19 297.239 1029.85 295.093C1026.52 292.937 1022.7 291.859 1018.39 291.859C1014.08 291.859 1010.28 292.937 1006.98 295.093C1003.69 297.249 1001.11 300.221 999.257 304.019C997.394 307.817 996.467 312.089 996.467 316.814C996.467 321.539 997.394 325.911 999.257 329.669C1001.11 333.426 1003.69 336.378 1006.98 338.534C1010.28 340.69 1014.08 341.768 1018.39 341.768C1022.7 341.768 1026.52 340.69 1029.85 338.534Z" fill="#DA6A9E"/>
<path d="M242.709 103.79C244.905 103.79 246.577 104.364 247.716 105.503C248.854 106.641 249.428 108.313 249.428 110.51V116.333C249.428 118.448 248.854 120.09 247.716 121.269C246.577 122.458 244.905 123.042 242.709 123.042H190.009C187.894 123.042 186.272 122.468 185.133 121.33C183.995 120.191 183.421 118.519 183.421 116.323V110.5C183.421 109.996 183.501 109.23 183.672 108.223C183.672 107.125 184.347 106.026 185.697 104.928C195.067 96.8184 203.428 88.7186 210.783 80.6087C218.127 72.4988 221.844 66.1217 221.935 61.4774C221.935 58.7774 221.008 56.5207 219.145 54.6973C217.291 52.8839 214.964 51.9772 212.173 51.9772H212.042C209.926 51.9772 207.801 52.5514 205.645 53.6898C203.489 54.8282 201.736 56.5409 200.386 58.8177C199.63 60.0065 198.885 60.8628 198.17 61.4169C197.454 61.971 196.588 62.243 195.57 62.243C194.976 62.243 194.513 62.2027 194.18 62.112L184.428 59.8352C183.249 59.5028 182.292 58.9688 181.577 58.2535C180.862 57.5382 180.499 56.6719 180.499 55.6543C180.499 54.8988 180.58 54.3044 180.751 53.8812C182.947 46.8694 186.896 41.1472 192.598 36.7144C198.301 32.2817 204.698 30.025 211.79 29.9343H214.198C220.021 29.9343 225.28 31.2239 229.964 33.8029C234.649 36.382 238.326 39.908 240.986 44.3811C243.646 48.8541 244.975 53.8812 244.975 59.4524C244.975 70.1817 235.898 84.9608 217.744 103.79H242.699H242.709Z" fill="#DA6A9E"/>
<path d="M317.833 35.8882C323.747 40.0288 328.391 45.7309 331.766 52.9946C335.141 60.2582 336.834 68.3682 336.834 77.3142C336.834 86.2603 335.141 94.3702 331.766 101.634C328.391 108.898 323.747 114.6 317.833 118.73C311.92 122.871 305.331 124.936 298.067 124.936C290.804 124.936 284.195 122.871 278.241 118.73C272.287 114.59 267.623 108.898 264.248 101.634C260.873 94.3702 259.18 86.2603 259.18 77.3142C259.18 68.3682 260.873 60.2582 264.248 52.9946C267.623 45.7309 272.287 40.0288 278.241 35.8882C284.195 31.7476 290.804 29.6824 298.067 29.6824C305.331 29.6824 311.92 31.7476 317.833 35.8882ZM306.046 100.556C308.414 98.2388 310.288 95.0452 311.688 90.9953C313.078 86.9454 313.773 82.3817 313.773 77.3142C313.773 72.2468 313.078 67.6831 311.688 63.6332C310.298 59.5833 308.414 56.3897 306.046 54.0726C303.679 51.7554 301.019 50.5868 298.067 50.5868C295.116 50.5868 292.426 51.7454 290.028 54.0726C287.62 56.3997 285.716 59.5833 284.326 63.6332C282.936 67.6831 282.241 72.2468 282.241 77.3142C282.241 82.3817 282.936 86.9454 284.326 90.9953C285.716 95.0452 287.62 98.2388 290.028 100.556C292.436 102.883 295.116 104.042 298.067 104.042C301.019 104.042 303.679 102.883 306.046 100.556Z" fill="#DA6A9E"/>
<path d="M407.385 103.79C409.582 103.79 411.254 104.364 412.392 105.503C413.531 106.641 414.105 108.313 414.105 110.51V116.333C414.105 118.448 413.531 120.09 412.392 121.269C411.254 122.458 409.582 123.042 407.385 123.042H354.686C352.57 123.042 350.948 122.468 349.81 121.33C348.672 120.191 348.097 118.519 348.097 116.323V110.5C348.097 109.996 348.178 109.23 348.349 108.223C348.349 107.125 349.024 106.026 350.374 104.928C359.743 96.8184 368.105 88.7186 375.459 80.6087C382.804 72.4988 386.521 66.1217 386.612 61.4774C386.612 58.7774 385.685 56.5207 383.821 54.6973C381.968 52.8839 379.64 51.9772 376.85 51.9772H376.719C374.603 51.9772 372.477 52.5514 370.322 53.6898C368.166 54.8282 366.413 56.5409 365.063 58.8177C364.307 60.0065 363.562 60.8628 362.846 61.4169C362.131 61.971 361.265 62.243 360.247 62.243C359.653 62.243 359.189 62.2027 358.857 62.112L349.105 59.8352C347.926 59.5028 346.969 58.9688 346.254 58.2535C345.538 57.5382 345.176 56.6719 345.176 55.6543C345.176 54.8988 345.256 54.3044 345.428 53.8812C347.624 46.8694 351.573 41.1472 357.275 36.7144C362.977 32.2817 369.375 30.025 376.467 29.9343H378.875C384.698 29.9343 389.957 31.2239 394.641 33.8029C399.326 36.382 403.003 39.908 405.663 44.3811C408.322 48.8541 409.652 53.8812 409.652 59.4524C409.652 70.1817 400.575 84.9608 382.421 103.79H407.375H407.385Z" fill="#DA6A9E"/>
<path d="M482.953 108.223C480.213 113.119 476.284 116.927 471.176 119.627C466.069 122.327 460.044 123.727 453.123 123.808H452.368C445.356 123.636 439.049 121.319 433.428 116.836C427.806 112.363 423.948 106.701 421.832 99.8608C421.661 99.4377 421.58 98.8433 421.58 98.0877C421.58 97.0702 421.943 96.2138 422.658 95.4885C423.373 94.7732 424.32 94.2393 425.509 93.9068L435.261 91.63C435.594 91.5494 436.067 91.499 436.651 91.499C437.669 91.499 438.525 91.771 439.251 92.3251C439.966 92.8792 440.711 93.7355 441.467 94.9243C442.736 97.1205 444.419 98.7828 446.534 99.9313C448.64 101.07 450.715 101.684 452.74 101.765C456.458 101.684 459.43 100.586 461.666 98.4705C463.903 96.365 465.021 93.534 465.021 89.9878C465.021 86.4417 463.752 83.9331 461.223 81.9485C458.694 79.9638 455.309 78.9765 451.088 78.9765C448.892 78.9765 446.383 79.3795 443.552 80.1754C440.721 80.9813 438.213 81.9686 436.017 83.1574C435.17 83.5805 434.495 83.7921 433.992 83.7921C433.146 83.7921 432.259 83.4092 431.332 82.6537L424.995 77.5862L424.361 76.9515C423.434 76.2766 423.051 75.259 423.222 73.9091L428.793 34.5181C429.216 32.2413 430.395 31.0928 432.34 31.0928H476.798C478.4 31.0928 479.649 31.667 480.536 32.8054C481.422 33.9438 481.865 35.6162 481.865 37.8124V43.7664C481.865 48.1588 480.173 50.3551 476.798 50.3551H446.273L444.63 63.4014C448.6 62.5552 452.186 62.1321 455.4 62.1321H455.652C465.444 62.2127 473.131 64.8119 478.702 69.9196C484.273 75.0273 487.064 82.0593 487.064 91.0154C487.064 97.6041 485.694 103.347 482.943 108.243L482.953 108.223Z" fill="#DA6A9E"/>
</g>
<defs>
<clipPath id="clip0_629_2203">
<rect width="1265.14" height="335.015" fill="white" transform="translate(27.7002 29.6824)"/>
</clipPath>
</defs>
</svg>
